<svg width="18" height="17" viewBox="0 0 18 17" fill="none" xmlns="http://www.w3.org/2000/svg">
<path fill-rule="evenodd" clip-rule="evenodd" d="M9 0C9.49706 0 9.9 0.380558 9.9 0.85V8.99792L12.8636 6.19896C13.2151 5.86701 13.7849 5.86701 14.1364 6.19896C14.4879 6.5309 14.4879 7.0691 14.1364 7.40104L9.6364 11.651C9.28492 11.983 8.71508 11.983 8.3636 11.651L3.8636 7.40104C3.51213 7.0691 3.51213 6.5309 3.8636 6.19896C4.21508 5.86701 4.78492 5.86701 5.1364 6.19896L8.1 8.99792V0.85C8.1 0.380558 8.50294 0 9 0ZM0.9 10.2C1.39706 10.2 1.8 10.5806 1.8 11.05V14.45C1.8 14.6754 1.89482 14.8916 2.0636 15.051C2.23239 15.2104 2.46131 15.3 2.7 15.3H15.3C15.5387 15.3 15.7676 15.2104 15.9364 15.051C16.1052 14.8916 16.2 14.6754 16.2 14.45V11.05C16.2 10.5806 16.6029 10.2 17.1 10.2C17.5971 10.2 18 10.5806 18 11.05V14.45C18 15.1263 17.7155 15.7749 17.2092 16.2531C16.7028 16.7313 16.0161 17 15.3 17H2.7C1.98392 17 1.29716 16.7313 0.790812 16.2531C0.284463 15.7749 0 15.1263 0 14.45V11.05C0 10.5806 0.402944 10.2 0.9 10.2Z" fill="#1A1A1A"/>
</svg>
