<svg width="137" height="40" viewBox="0 0 137 40" fill="none" xmlns="http://www.w3.org/2000/svg">
<path fill-rule="evenodd" clip-rule="evenodd" d="M19.9162 21.282C18.6185 20.3872 17.0775 19.1684 17.0775 19.1684V14.54L24 20.175C23.6796 21.8413 21.656 22.4815 19.9162 21.282ZM8.51655 3.61696C7.95285 -0.702877 15.3296 -1.56684 15.3296 3.30454C15.3296 8.24535 9.06402 7.8018 8.51655 3.61696ZM15.0052 9.93857L15.2769 23.5962L22.6779 39.0242C21.7898 40.0039 19.4661 40.4937 18.3265 38.5536C15.6621 34.0217 7.96096 20.7922 7.96096 20.7922L7.02011 14.4783L4.38816 15.3037L3.08639 22.173C3.08639 22.173 -0.186307 22.5587 0.00835167 20.0362C0.215176 17.4366 0.551773 12.488 0.551773 12.488L7.67302 8.42663C12.5476 8.06793 15.0254 9.954 15.0254 9.954L15.0052 9.93857ZM6.89439 23.3571L9.92782 28.5139L3.93802 40C2.46186 40 0.405779 38.6655 1.38313 36.4246C2.31992 34.2878 6.91873 23.3725 6.91873 23.3725L6.89439 23.3571Z" fill="#3F4C1C"/>
<path fill-rule="evenodd" clip-rule="evenodd" d="M131.957 29.5042L131.431 31.3837L111.194 19.1015L111.024 13.6874C111.024 13.6874 115.301 16.7193 117.033 18.096C117.451 18.3861 117.762 18.8041 117.921 19.2868C118.08 19.7695 118.078 20.2908 117.915 20.7721L127.05 26.4878L128.538 20.3931L130.553 22.8991L133.427 22.9919L134.158 24.4111H137C137 28.0811 135.693 29.5739 131.957 29.5042ZM108.603 19.3451L113.92 39.5822C113.92 39.5822 110.977 40.897 110.103 38.422C109.295 36.1365 105.277 25.6603 105.277 25.6603L103.668 26.3873C103.668 26.3873 100.273 35.7923 99.1939 38.4491C98.084 41.1793 95.2842 39.4739 95.2842 39.4739L100.451 20.0219L100.226 14.8205L98.1768 15.3387L96.9432 22.2262C96.9432 22.2262 93.8223 22.6322 94.008 20.0876C94.1975 17.4811 94.5184 12.5118 94.5184 12.5118L101.309 8.44734C106.109 8.19211 109.318 9.6075 108.947 14.8398C108.839 16.3519 108.603 19.3451 108.603 19.3451ZM100.992 3.64041C100.447 -0.706324 107.489 -1.57258 107.489 3.3117C107.489 8.25785 101.518 7.82472 100.992 3.64041ZM119.845 27.8491L120.696 29.9567L124.459 29.0789L130.928 33.1704L129.54 38.1358C129.977 38.1358 130.457 38.8319 130.457 39.7214H126.381L126.218 35.4211L121.751 35.22L119.737 38.1436C120.1 38.2028 120.426 38.4 120.647 38.694C120.868 38.988 120.968 39.3561 120.924 39.7214H115.657L118.65 27.8723L119.845 27.8491Z" fill="#3F4C1C"/>
<path fill-rule="evenodd" clip-rule="evenodd" d="M63.3906 35.5612L63.9834 33.3573L82 32.9699L81.3148 35.4953L63.3906 35.5612ZM72.0639 20.4553L63.7601 23.3254L61.0654 20.4049L36 20.2965L36.716 18.3327H49.4585C49.6473 18.0622 49.8743 17.8208 50.1322 17.6161C52.4035 15.8422 54.4285 14.4439 56.0993 13.3555C58.6824 11.6629 59.7218 11.5893 62.5975 13.0263L65.1268 18.3017H72.5798L72.0755 20.4669L72.0639 20.4553ZM63.918 9.99734C64.2067 5.62825 71.2324 6.12403 70.32 10.9076C69.3884 15.757 63.6408 14.196 63.918 9.98959V9.99734ZM40.6543 37.7341L55.926 37.5869L56.0223 35.596L41.3934 35.6619L42.0402 33.8414L56.1185 33.5277L56.3495 28.5389C56.3495 28.5389 52.3728 26.2149 50.0937 24.9948C49.2237 24.5223 48.7078 23.4455 48.5539 22.206L58.1203 22.4965L62.074 26.7029L59.8219 37.5482L80.7989 37.339L80.0752 40L39.9806 39.6359L40.6543 37.7341Z" fill="#3F4C1C"/>
</svg>
