<svg width="115" height="66" viewBox="0 0 115 66" fill="none" xmlns="http://www.w3.org/2000/svg">
<path fill-rule="evenodd" clip-rule="evenodd" d="M44.4223 6.98507C48.8342 11.6653 51.0401 18.0036 51.0401 26C51.0401 34.0199 48.8342 40.3465 44.4223 44.9796C40.0105 49.6599 33.8764 52 26.02 52C18.1873 52 12.065 49.6599 7.65314 44.9796C3.21771 40.2994 1 33.9729 1 26C1 18.0271 3.21771 11.6888 7.65314 6.98507C12.0886 2.32836 18.2109 0 26.02 0C33.8764 0 40.0105 2.32836 44.4223 6.98507ZM17.6682 26C17.6682 17.6744 20.4522 13.5115 26.02 13.5115C31.5643 13.5115 34.3365 17.6744 34.3365 26C34.3365 34.3492 31.5643 38.5237 26.02 38.5237C20.4522 38.5237 17.6682 34.3492 17.6682 26Z" fill="#A0A747"/>
<path fill-rule="evenodd" clip-rule="evenodd" d="M53.5555 13.0529C53.5555 17.2628 54.7116 20.4966 57.0237 22.7544C59.3122 25.0122 62.4618 26.1411 66.4725 26.1411C70.4833 26.1411 73.6329 25.0122 75.9214 22.7544C78.2099 20.4966 79.3541 17.2628 79.3541 13.0529C79.3541 8.86658 78.2099 5.6445 75.9214 3.3867C73.6329 1.1289 70.4833 0 66.4725 0C62.4618 0 59.3122 1.1289 57.0237 3.3867C54.7116 5.6445 53.5555 8.86658 53.5555 13.0529ZM68.8436 13.0529C68.8436 16.2515 68.0532 17.8507 66.4725 17.8507C64.8682 17.8507 64.0661 16.2515 64.0661 13.0529C64.0661 9.87788 64.8682 8.29037 66.4725 8.29037C68.0532 8.29037 68.8436 9.87788 68.8436 13.0529ZM114 38.9471C114 34.7607 112.856 31.5269 110.567 29.2456C108.255 26.9878 105.106 25.8589 101.118 25.8589C97.1312 25.8589 93.9816 26.9878 91.6695 29.2456C89.3574 31.5504 88.2014 34.7843 88.2014 38.9471C88.2014 43.1334 89.3574 46.3555 91.6695 48.6133C93.9816 50.8711 97.1312 52 101.118 52C105.106 52 108.255 50.8711 110.567 48.6133C112.856 46.3555 114 43.1334 114 38.9471ZM98.7119 38.9471C98.7119 35.772 99.5141 34.1845 101.118 34.1845C102.699 34.1845 103.489 35.772 103.489 38.9471C103.489 42.1221 102.699 43.7096 101.118 43.7096C99.5141 43.7096 98.7119 42.1221 98.7119 38.9471Z" fill="#A0A747"/>
<path d="M72.5594 51.2944H60.2441L95.0315 0.705563H107.347L72.5594 51.2944Z" fill="#A0A747"/>
<path d="M1 62.9279C33.6986 60.498 102.077 57.3104 114 64" stroke="#A0A747" stroke-width="2.5"/>
</svg>
